<svg width="16" height="17" viewBox="0 0 16 17" fill="none" xmlns="http://www.w3.org/2000/svg">
<path d="M14.543 8.66016C15.0442 9.30345 15.333 10.0534 15.333 10.8555C15.333 11.4777 15.1603 12.0692 14.8486 12.6035C14.6967 12.8639 14.8711 13.7556 15.0518 14.4814C15.1537 14.891 14.7423 15.2678 14.3438 15.1289C13.573 14.8604 12.5805 14.5653 12.2529 14.6934C11.4776 14.9965 10.5986 15.1679 9.66699 15.168C7.97409 15.168 6.45535 14.6017 5.41699 13.7061C5.92778 13.7942 6.45734 13.8418 7 13.8418C10.7685 13.8417 13.8995 11.606 14.543 8.66016Z" fill="#262F56"/>
<path d="M13.3337 7.53846C13.3337 10.2866 10.4981 12.5144 7.00033 12.5144C6.04768 12.5144 5.14415 12.3492 4.33366 12.0532C3.95204 11.9138 2.63467 12.2519 1.68826 12.5291C1.28107 12.6483 0.893237 12.2419 1.02305 11.838C1.2726 11.0615 1.52942 10.0703 1.33366 9.76314C0.90706 9.09367 0.666992 8.3381 0.666992 7.53846C0.666992 4.79031 3.50252 2.5625 7.00033 2.5625C10.4981 2.5625 13.3337 4.79031 13.3337 7.53846Z" fill="#262F56"/>
</svg>
