<svg width="16" height="17" viewBox="0 0 16 17" fill="none" xmlns="http://www.w3.org/2000/svg">
<path d="M7.26953 9.67659V15.6141H3.05273C2.27059 15.6139 1.6369 14.9792 1.63672 14.1971V9.67659H7.26953ZM14.3643 14.1971C14.3641 14.9793 13.7296 15.6141 12.9473 15.6141H8.54395V9.67659H14.3643V14.1971ZM9.32031 2.25374C10.3583 1.5924 11.7362 1.89738 12.3975 2.93538C13.0584 3.97338 12.7527 5.35126 11.7148 6.01253C11.685 6.03155 11.6525 6.04857 11.6201 6.06722H14.292C14.6831 6.06722 14.9999 6.38409 15 6.77522V7.91292C14.9999 8.11015 14.9084 8.28444 14.7676 8.4012H8.54395V5.94417H7.26953V8.4012H1.2334C1.09216 8.28444 1.00013 8.11029 1 7.91292V6.77522C1.00009 6.3842 1.31701 6.06739 1.70801 6.06722H4.38184C4.34945 6.04857 4.317 6.03156 4.28711 6.01253C3.24944 5.3512 2.94458 3.9733 3.60547 2.93538C4.26677 1.89767 5.64376 1.59265 6.68164 2.25374C7.11037 2.52697 7.61872 3.05867 8.00098 3.61995C8.38323 3.05862 8.89154 2.52701 9.32031 2.25374ZM5.99707 3.32893C5.55299 3.04599 4.96361 3.17674 4.68066 3.62093C4.39807 4.0651 4.52869 4.65446 4.97266 4.93733C5.24129 5.10835 5.84241 5.32141 6.44434 5.39632C6.73924 5.433 6.99034 5.42975 7.1709 5.39436C7.36149 5.35694 7.37828 5.30484 7.3623 5.32991C7.3475 5.3536 7.38682 5.31514 7.34082 5.12874C7.29664 4.95012 7.19206 4.72141 7.03418 4.46956C6.7119 3.9556 6.26559 3.50015 5.99707 3.32893ZM11.3223 3.62093C11.0394 3.17684 10.4499 3.04624 10.0059 3.32893C9.73734 3.50011 9.29009 3.95552 8.96777 4.46956C8.80995 4.72135 8.70628 4.95015 8.66211 5.12874C8.61594 5.31575 8.6548 5.354 8.63965 5.32991C8.62368 5.30485 8.6406 5.35695 8.83105 5.39436C9.01157 5.42979 9.26271 5.43298 9.55762 5.39632C10.1597 5.32141 10.7617 5.10837 11.0303 4.93733C11.4739 4.65445 11.6046 4.06497 11.3223 3.62093Z" fill="#262F56"/>
</svg>
