<svg width="24" height="24" viewBox="0 0 24 24" fill="none" xmlns="http://www.w3.org/2000/svg">
<path d="M12 7.98077C13.1 7.98077 14 7.0851 14 5.99039C14 4.89567 13.1 4 12 4C10.9 4 10 4.89567 10 5.99039C10 7.0851 10.9 7.98077 12 7.98077Z" fill="#262F56"/>
<path d="M12 9.97116C10.9 9.97116 10 10.8668 10 11.9615C10 13.0563 10.9 13.9519 12 13.9519C13.1 13.9519 14 13.0563 14 11.9615C14 10.8668 13.1 9.97116 12 9.97116Z" fill="#262F56"/>
<path d="M10 17.9327C10 16.838 10.9 15.9423 12 15.9423C13.1 15.9423 14 16.838 14 17.9327C14 19.0274 13.1 19.9231 12 19.9231C10.9 19.9231 10 19.0274 10 17.9327Z" fill="#262F56"/>
</svg>
